<svg width="87" height="52" viewBox="90 0 87 52" fill="none" xmlns="http://www.w3.org/2000/svg">
<path d="M90.125 41.0004H94.8636V35.8186H97.4886C101.469 35.8186 104.136 33.4749 104.136 29.7164C104.136 26.0004 101.537 23.5459 97.6591 23.5459H90.125V41.0004ZM94.8636 32.1368V27.33H96.5341C98.196 27.33 99.1932 28.2164 99.1932 29.7164C99.1932 31.2078 98.196 32.1368 96.5341 32.1368H94.8636Z" fill="white"/>
<path d="M111.969 41.2391C116.23 41.2391 118.753 38.5118 118.753 34.4891C118.753 30.4664 116.23 27.7391 111.969 27.7391C107.707 27.7391 105.185 30.4664 105.185 34.4891C105.185 38.5118 107.707 41.2391 111.969 41.2391ZM112.003 37.7618C110.741 37.7618 109.991 36.509 109.991 34.455C109.991 32.401 110.741 31.1482 112.003 31.1482C113.196 31.1482 113.946 32.401 113.946 34.455C113.946 36.509 113.196 37.7618 112.003 37.7618Z" fill="white"/>
<path d="M126.969 41.2391C130.847 41.2391 133.224 39.0146 133.276 35.5459H128.912C128.81 36.9181 128.068 37.6595 127.037 37.6595C125.801 37.6595 124.991 36.6027 124.991 34.455C124.991 32.3073 125.801 31.2504 127.037 31.2504C128.077 31.2504 128.784 31.9919 128.912 33.3641H133.276C133.25 29.955 130.821 27.7391 126.969 27.7391C122.707 27.7391 120.185 30.4664 120.185 34.4891C120.185 38.5118 122.707 41.2391 126.969 41.2391Z" fill="white"/>
<path d="M141.523 41.2391C145.401 41.2391 147.779 39.0146 147.83 35.5459H143.467C143.364 36.9181 142.623 37.6595 141.592 37.6595C140.356 37.6595 139.546 36.6027 139.546 34.455C139.546 32.3073 140.356 31.2504 141.592 31.2504C142.631 31.2504 143.339 31.9919 143.467 33.3641H147.83C147.805 29.955 145.376 27.7391 141.523 27.7391C137.262 27.7391 134.739 30.4664 134.739 34.4891C134.739 38.5118 137.262 41.2391 141.523 41.2391Z" fill="white"/>
<path d="M154.203 35.0004V27.9095H149.771V41.0004H154.203L157.851 33.8754V41.0004H162.283V27.9095H157.851L154.203 35.0004Z" fill="white"/>
<path d="M172.212 41.0004H176.575V27.9095H170.439C166.663 27.9095 164.277 29.8186 164.303 32.4777C164.286 33.9692 165.18 35.205 166.749 35.9379L164.166 41.0004H168.496L170.703 36.6709H172.212V41.0004ZM172.212 33.8414H170.541C169.288 33.8414 168.709 33.2277 168.734 32.6482C168.709 32.1027 169.254 31.4209 170.439 31.4209H172.212V33.8414Z" fill="white"/>
</svg>
