<svg width="887" height="226" viewBox="0 0 887 226" fill="none" xmlns="http://www.w3.org/2000/svg">
<path fill-rule="evenodd" clip-rule="evenodd" d="M886.5 124.659C886.5 124.981 886.276 125.242 886 125.242C878.235 125.242 874.096 127.241 867.479 130.438C866.962 130.688 866.43 130.945 865.879 131.209C864.957 131.652 863.908 131.379 862.859 130.752C861.799 130.118 860.642 129.067 859.437 127.752C857.022 125.117 854.319 121.318 851.681 117.342C849.912 114.675 848.16 111.911 846.538 109.35C845.74 108.092 844.974 106.882 844.252 105.758C843.153 104.047 842.158 102.533 841.305 101.329C840.444 100.113 839.756 99.2547 839.27 98.822C826.304 87.2671 808.185 96.6761 805.081 112.95C804.317 116.959 803.492 119.971 802.594 122.179C801.697 124.384 800.709 125.835 799.596 126.659C797.323 128.342 794.799 127.243 792.231 125.636C791.465 125.156 790.687 124.627 789.889 124.084C787.926 122.749 785.848 121.336 783.566 120.403C780.406 119.112 776.935 118.789 773.06 121.047C771.877 121.737 770.211 123.382 768.343 125.525C766.49 127.652 764.485 130.215 762.63 132.682C760.779 135.144 759.082 137.503 757.843 139.227L757.838 139.234C757.219 140.094 756.712 140.8 756.358 141.277C756.182 141.514 756.038 141.704 755.935 141.83C755.887 141.889 755.832 141.952 755.782 142.001L755.78 142.002C755.764 142.018 755.701 142.078 755.614 142.116C755.581 142.131 755.431 142.196 755.252 142.117C755.015 142.012 754.944 141.766 754.93 141.638C754.311 135.868 751.533 129.646 747.621 125.101C743.706 120.552 738.733 117.765 733.74 118.66C725.661 120.108 720.995 125.79 717.106 132.626C715.862 134.813 714.711 137.091 713.553 139.384C712.89 140.698 712.224 142.016 711.537 143.325C709.662 146.896 707.648 150.353 705.163 153.25C704.855 153.608 704.512 153.837 704.136 153.92C703.762 154.002 703.402 153.928 703.072 153.773C702.435 153.473 701.836 152.83 701.306 152.179C701.035 151.846 700.766 151.49 700.508 151.148L700.506 151.145C700.246 150.801 699.998 150.472 699.755 150.175C699.512 149.876 699.285 149.622 699.073 149.429C698.858 149.233 698.684 149.123 698.546 149.077C696.67 148.453 694.152 148.31 691.597 148.471C689.051 148.633 686.513 149.094 684.619 149.646C681.58 150.531 677.722 152.861 673.415 155.829C671.077 157.44 668.645 159.211 666.157 161.023C664.05 162.558 661.902 164.121 659.738 165.642C655.055 168.932 650.359 171.969 646.073 173.859C641.806 175.741 637.841 176.535 634.674 175.176C632.253 174.136 630.116 173.026 628.105 171.95C627.752 171.761 627.403 171.574 627.058 171.388C625.43 170.512 623.873 169.676 622.282 168.925C618.442 167.114 614.42 165.819 608.894 165.819C606.353 165.819 604.918 166.452 603.967 167.235C603.485 167.631 603.11 168.081 602.766 168.549C602.617 168.753 602.476 168.957 602.333 169.164L602.266 169.261C602.102 169.498 601.933 169.74 601.756 169.969C601.399 170.429 600.992 170.864 600.457 171.176C599.919 171.49 599.283 171.663 598.488 171.655C596.925 171.64 594.704 170.923 591.281 169.15C586.167 166.501 581.576 162.26 577.041 157.86C576.511 157.346 575.982 156.83 575.452 156.313C571.435 152.395 567.416 148.473 563.019 145.449C561.581 144.46 559.038 142.301 555.826 139.574C554.707 138.623 553.507 137.604 552.243 136.54C547.332 132.409 541.431 127.582 535.528 123.462C529.615 119.335 523.743 115.946 518.884 114.654C516.456 114.008 514.324 113.897 512.583 114.44C510.862 114.975 509.499 116.155 508.584 118.169C505.827 124.239 506.022 130.92 506.222 137.745C506.238 138.278 506.253 138.812 506.268 139.346C506.463 146.663 506.391 154.076 502.089 160.522C496.097 169.499 491.877 180.605 491.877 192.287C491.877 195.257 491.135 204.057 490.019 211.736C489.461 215.575 488.804 219.172 488.091 221.635C487.738 222.853 487.353 223.862 486.923 224.478C486.709 224.786 486.437 225.064 486.098 225.162C485.724 225.271 485.376 225.134 485.093 224.859C482.369 222.213 477.832 220.904 472.344 220.257C467.648 219.703 462.349 219.64 457.051 219.577C456.18 219.567 455.31 219.557 454.442 219.544C448.314 219.456 442.318 219.259 437.501 218.161C432.714 217.07 428.904 215.048 427.407 211.122C426.477 208.683 426.088 206.326 425.819 204.183C425.757 203.691 425.702 203.214 425.648 202.752C425.465 201.174 425.302 199.767 424.966 198.51C424.544 196.927 423.861 195.647 422.539 194.696C421.194 193.729 419.138 193.067 415.908 192.869C411.332 192.589 408.232 191.641 406.129 190.032C404 188.402 402.951 186.14 402.395 183.408C401.915 181.053 401.793 178.299 401.659 175.265C401.64 174.827 401.62 174.383 401.599 173.933C401.431 170.347 401.176 166.35 400.295 161.988C400.153 161.286 400.008 160.245 399.844 159.064C399.796 158.719 399.746 158.362 399.695 157.998C399.463 156.367 399.185 154.56 398.819 152.92C398.449 151.264 398.003 149.846 397.46 148.952C397.19 148.509 396.922 148.237 396.664 148.106C396.422 147.985 396.148 147.965 395.804 148.121C387.486 151.891 378.93 154.529 370.349 157.176L369.798 157.346C363.018 159.437 358.364 160.569 355.079 160.737C351.776 160.905 349.75 160.104 348.356 158.202C347.677 157.275 347.173 156.12 346.732 154.777C346.291 153.435 345.903 151.868 345.47 150.107L345.416 149.887C344.558 146.393 343.497 142.073 341.488 136.923C339.75 132.469 337.341 129.416 334.591 126.682C333.36 125.457 332.066 124.302 330.729 123.108C330.568 122.964 330.406 122.82 330.244 122.675C328.74 121.33 327.19 119.925 325.652 118.332C324.534 117.174 322.773 115.962 320.701 114.674C319.791 114.109 318.807 113.521 317.801 112.919C316.565 112.181 315.297 111.423 314.094 110.664C311.883 109.27 309.767 107.798 308.156 106.237C306.56 104.69 305.369 102.97 305.176 101.057C304.788 97.2124 303.482 95.4401 301.809 94.8C300.064 94.132 297.75 94.6207 295.231 95.7922C290.219 98.1229 284.829 102.945 282.61 105.013C279.905 107.535 277.228 109.995 274.587 112.422C255.243 130.195 237.806 146.216 225.022 172.288L224.926 172.483C223.754 174.876 219.684 183.186 215.741 188.537C214.724 189.917 213.701 191.121 212.725 191.979C211.763 192.825 210.774 193.401 209.837 193.377C208.835 193.352 208.04 192.652 207.495 191.355C206.961 190.087 206.63 188.185 206.517 185.554C206.178 177.654 203.685 169.21 200.463 161.009C197.946 154.603 195 148.384 192.315 142.714C191.563 141.126 190.831 139.581 190.135 138.087C177.019 109.945 162.479 80.9486 139.67 62.3927C138.016 61.0464 136.536 59.8733 135.194 58.8093C131.62 55.975 129.022 53.915 126.685 51.4178C123.447 47.9596 120.704 43.6659 116.475 35.3484C116.162 34.7342 115.849 34.1156 115.533 33.4938C111.218 24.9803 106.606 15.8832 100.92 9.60935C97.8779 6.25262 94.5502 3.73127 90.8229 2.53989C87.1025 1.35073 82.9473 1.47467 78.2258 3.4755C76.5811 4.17246 74.8217 5.58636 73.0313 7.45919C71.2459 9.3268 69.4565 11.622 67.7499 14.0433C64.9652 17.9939 62.4247 22.2445 60.4944 25.4742C60.057 26.2062 59.6509 26.8857 59.2803 27.4974C45.4958 50.2544 27.8335 67.9995 9.96307 85.9536C7.08538 88.8447 4.20227 91.7413 1.3291 94.6651C1.12109 94.8768 0.805233 94.8519 0.623593 94.6095C0.442013 94.3671 0.463375 93.999 0.671383 93.7873C3.55322 90.8547 6.44165 87.9525 9.32184 85.0586C27.1967 67.0985 44.7555 49.4559 58.4634 26.8254C58.8286 26.2225 59.2307 25.5496 59.6652 24.8225C61.5952 21.5932 64.1644 17.2942 66.9772 13.3036C68.7015 10.8572 70.5265 8.51336 72.3633 6.59197C74.1951 4.67579 76.066 3.15074 77.884 2.38032C82.7819 0.304788 87.1492 0.157263 91.0874 1.41605C95.0187 2.67261 98.4858 5.31861 101.608 8.76313C107.401 15.1553 112.082 24.3909 116.377 32.8662C116.698 33.5003 117.017 34.1302 117.335 34.7543C121.549 43.0417 124.232 47.2176 127.36 50.5588C129.641 52.9949 132.156 54.9891 135.698 57.7986C137.049 58.8697 138.549 60.0593 140.243 61.4371C163.269 80.1702 177.906 109.405 191.013 137.531C191.703 139.011 192.43 140.546 193.179 142.127C195.867 147.802 198.838 154.073 201.372 160.523C204.613 168.771 207.168 177.375 207.516 185.495C207.627 188.073 207.948 189.787 208.392 190.842C208.825 191.869 209.334 192.199 209.859 192.212C210.45 192.227 211.212 191.849 212.122 191.049C213.018 190.262 213.988 189.127 214.982 187.778C218.86 182.515 222.89 174.289 224.063 171.895L224.154 171.71C237.041 145.428 254.637 129.263 273.973 111.501C276.614 109.075 279.287 106.619 281.986 104.103C284.202 102.037 289.695 97.1118 294.86 94.7098C297.429 93.515 300.027 92.8911 302.121 93.6929C304.29 94.5227 305.753 96.8026 306.169 100.921C306.315 102.372 307.249 103.842 308.796 105.341C310.327 106.825 312.371 108.252 314.57 109.639C315.789 110.408 317.018 111.142 318.228 111.865C319.228 112.462 320.215 113.052 321.171 113.646C323.239 114.931 325.099 116.2 326.316 117.461C327.825 119.024 329.35 120.407 330.853 121.751C331.015 121.896 331.177 122.04 331.338 122.184C332.672 123.375 333.988 124.55 335.24 125.795C338.057 128.596 340.58 131.78 342.398 136.441C344.438 141.67 345.516 146.06 346.375 149.556L346.431 149.786C346.867 151.558 347.244 153.074 347.666 154.36C348.087 155.645 348.542 156.662 349.116 157.445C350.229 158.963 351.888 159.733 355.035 159.572C358.199 159.411 362.758 158.312 369.542 156.219L370.071 156.056C378.668 153.405 387.176 150.78 395.442 147.034C396.01 146.777 396.559 146.783 397.061 147.037C397.548 147.282 397.946 147.736 398.276 148.278C398.93 149.354 399.412 150.947 399.787 152.626C400.165 154.321 400.449 156.172 400.681 157.808C400.736 158.19 400.787 158.56 400.836 158.912C400.999 160.082 401.135 161.063 401.268 161.721C402.17 166.187 402.429 170.268 402.597 173.87C402.619 174.325 402.639 174.771 402.658 175.209C402.794 178.26 402.911 180.895 403.368 183.139C403.883 185.67 404.819 187.635 406.678 189.058C408.562 190.5 411.453 191.429 415.961 191.706C419.263 191.908 421.513 192.589 423.064 193.704C424.639 194.837 425.446 196.381 425.921 198.164C426.284 199.524 426.462 201.062 426.647 202.659C426.699 203.107 426.751 203.56 426.808 204.014C427.073 206.121 427.446 208.355 428.321 210.649C429.602 214.008 432.95 215.936 437.693 217.018C442.407 218.092 448.314 218.291 454.454 218.379C455.317 218.391 456.185 218.402 457.054 218.412C462.348 218.474 467.7 218.538 472.444 219.097C477.947 219.747 482.758 221.074 485.733 223.963C485.826 224.054 485.855 224.032 485.856 224.032C485.891 224.021 485.992 223.966 486.147 223.744C486.456 223.3 486.795 222.463 487.143 221.262C487.831 218.89 488.477 215.369 489.033 211.541C490.145 203.887 490.877 195.161 490.877 192.287C490.877 180.279 495.211 168.929 501.3 159.806C505.359 153.724 505.464 146.712 505.268 139.382C505.254 138.834 505.237 138.285 505.221 137.733C505.02 130.97 504.812 123.981 507.7 117.624C508.75 115.313 510.344 113.93 512.324 113.314C514.284 112.703 516.596 112.85 519.107 113.518C524.126 114.853 530.11 118.322 536.042 122.462C541.983 126.609 547.912 131.459 552.828 135.596C554.12 136.682 555.338 137.717 556.467 138.676C559.657 141.384 562.134 143.488 563.528 144.446C568 147.521 572.086 151.509 576.096 155.421C576.625 155.938 577.153 156.453 577.681 156.965C582.22 161.368 586.715 165.51 591.687 168.085C595.09 169.848 597.151 170.476 598.497 170.49C599.157 170.496 599.632 170.354 600.009 170.134C600.39 169.912 600.701 169.592 601.013 169.189C601.17 168.985 601.324 168.767 601.487 168.53C601.649 168.296 601.821 168.044 602.006 167.792C602.379 167.284 602.815 166.756 603.39 166.283C604.551 165.327 606.202 164.653 608.894 164.653C614.576 164.653 618.726 165.991 622.657 167.845C624.273 168.607 625.856 169.458 627.484 170.334C627.828 170.519 628.174 170.704 628.522 170.891C630.527 171.963 632.636 173.058 635.02 174.082C637.833 175.29 641.505 174.628 645.719 172.769C649.916 170.918 654.547 167.928 659.222 164.643C661.345 163.152 663.49 161.59 665.604 160.051C668.113 158.224 670.577 156.43 672.906 154.826C677.209 151.86 681.18 149.446 684.376 148.515C686.336 147.944 688.937 147.473 691.543 147.308C694.141 147.143 696.788 147.28 698.821 147.957C699.133 148.061 699.425 148.271 699.689 148.511C699.957 148.755 700.222 149.055 700.48 149.372C700.736 149.686 700.996 150.029 701.25 150.367L701.259 150.379C701.519 150.723 701.776 151.062 702.032 151.377C702.558 152.023 703.028 152.495 703.446 152.692C703.644 152.786 703.808 152.806 703.951 152.775C704.093 152.744 704.262 152.651 704.455 152.426C706.856 149.628 708.821 146.266 710.684 142.717C711.352 141.445 712.009 140.144 712.669 138.837C713.839 136.522 715.016 134.191 716.272 131.983C720.227 125.031 725.103 119.029 733.588 117.508C739.007 116.537 744.281 119.574 748.327 124.275C752.109 128.67 754.886 134.59 755.765 140.293C756.1 139.836 756.542 139.221 757.072 138.485L757.078 138.476C758.317 136.753 760.019 134.386 761.878 131.914C763.74 129.438 765.763 126.851 767.641 124.695C769.505 122.556 771.272 120.786 772.613 120.005C776.783 117.575 780.544 117.933 783.897 119.304C786.275 120.275 788.489 121.781 790.481 123.135C791.257 123.663 791.999 124.167 792.704 124.609C795.304 126.236 797.322 126.963 799.059 125.676C799.951 125.015 800.836 123.782 801.69 121.68C802.543 119.582 803.349 116.664 804.105 112.698C807.357 95.6465 826.294 85.7909 839.878 97.8963C840.464 98.4188 841.216 99.3728 842.076 100.587C842.945 101.813 843.952 103.346 845.053 105.06C845.782 106.196 846.552 107.412 847.352 108.673C848.971 111.228 850.71 113.972 852.472 116.629C855.106 120.599 857.768 124.334 860.12 126.901C861.298 128.186 862.376 129.153 863.315 129.715C864.265 130.283 864.979 130.381 865.498 130.132C866.052 129.866 866.589 129.607 867.111 129.354C873.729 126.156 878.032 124.076 886 124.076C886.276 124.076 886.5 124.337 886.5 124.659Z" fill="white"/>
</svg>
