<svg width="938" height="264" fill="none" xmlns="http://www.w3.org/2000/svg">
<path fill-rule="evenodd" clip-rule="evenodd" d="M904.5 162.659c0 .322-.224.583-.5.583-7.765 0-11.904 1.999-18.521 5.196-.517.25-1.049.507-1.6.771-.922.443-1.971.17-3.02-.457-1.06-.634-2.217-1.685-3.422-3-2.415-2.635-5.118-6.434-7.756-10.41-1.769-2.667-3.521-5.431-5.143-7.992-.798-1.258-1.564-2.468-2.286-3.592-1.099-1.711-2.094-3.225-2.947-4.429-.861-1.216-1.549-2.074-2.035-2.507-12.966-11.555-31.085-2.146-34.189 14.128-.764 4.009-1.589 7.021-2.487 9.229-.897 2.205-1.885 3.656-2.998 4.48-2.273 1.683-4.797.584-7.365-1.023a75.512 75.512 0 01-2.342-1.552c-1.963-1.335-4.041-2.748-6.323-3.681-3.16-1.291-6.631-1.614-10.506.644-1.183.69-2.849 2.335-4.717 4.478-1.853 2.127-3.858 4.69-5.713 7.157a373.015 373.015 0 00-4.787 6.545l-.005.007c-.619.86-1.126 1.566-1.48 2.043-.176.237-.32.427-.423.553a2.152 2.152 0 01-.153.171l-.002.001a.575.575 0 01-.166.114.442.442 0 01-.362.001c-.237-.105-.308-.351-.322-.479-.619-5.77-3.397-11.992-7.309-16.537-3.915-4.549-8.888-7.336-13.881-6.441-8.079 1.448-12.745 7.13-16.634 13.966-1.244 2.187-2.395 4.465-3.553 6.758a276.268 276.268 0 01-2.016 3.941c-1.875 3.571-3.889 7.028-6.374 9.925-.308.358-.651.588-1.027.67-.374.082-.734.008-1.064-.147-.637-.3-1.236-.943-1.766-1.594-.271-.333-.54-.689-.798-1.031l-.002-.003c-.26-.344-.508-.673-.751-.97a6.972 6.972 0 00-.682-.746c-.215-.196-.389-.306-.527-.352-1.876-.624-4.394-.767-6.949-.606-2.546.162-5.084.623-6.978 1.175-3.039.885-6.897 3.215-11.204 6.183-2.338 1.611-4.77 3.382-7.258 5.194a458.484 458.484 0 01-6.419 4.619c-4.683 3.29-9.379 6.327-13.665 8.217-4.267 1.882-8.232 2.676-11.399 1.317-2.421-1.04-4.558-2.15-6.569-3.226l-1.047-.562c-1.628-.876-3.185-1.712-4.776-2.463-3.84-1.811-7.862-3.106-13.388-3.106-2.541 0-3.976.633-4.927 1.416-.482.396-.857.846-1.201 1.314-.149.204-.29.408-.433.615l-.067.097c-.164.237-.333.479-.51.708-.357.46-.764.895-1.299 1.207-.538.314-1.174.487-1.969.479-1.563-.015-3.784-.732-7.207-2.505-5.114-2.649-9.705-6.89-14.24-11.29-.53-.514-1.059-1.03-1.589-1.547-4.017-3.918-8.036-7.84-12.433-10.864-1.438-.989-3.981-3.148-7.193-5.875a983.36 983.36 0 00-3.583-3.034c-4.911-4.131-10.812-8.958-16.715-13.078-5.913-4.127-11.785-7.516-16.644-8.808-2.428-.646-4.56-.757-6.301-.214-1.721.535-3.084 1.715-3.999 3.729-2.757 6.07-2.562 12.751-2.362 19.576l.046 1.601c.195 7.317.123 14.73-4.179 21.176-5.992 8.977-10.212 20.083-10.212 31.765 0 2.97-.742 11.77-1.858 19.449-.558 3.839-1.215 7.436-1.928 9.899-.353 1.218-.738 2.227-1.168 2.843-.214.308-.486.586-.825.684-.374.109-.722-.028-1.005-.303-2.724-2.646-7.261-3.955-12.749-4.602-4.696-.554-9.995-.617-15.293-.68-.871-.01-1.741-.02-2.609-.033-6.128-.088-12.124-.285-16.941-1.383-4.787-1.091-8.597-3.113-10.094-7.039-.93-2.439-1.319-4.796-1.588-6.939-.062-.492-.117-.969-.171-1.431-.183-1.578-.346-2.985-.682-4.242-.422-1.583-1.105-2.863-2.427-3.814-1.345-.967-3.401-1.629-6.631-1.827-4.576-.28-7.676-1.228-9.779-2.837-2.129-1.63-3.178-3.892-3.734-6.624-.48-2.355-.602-5.109-.736-8.143a406.44 406.44 0 00-.06-1.332c-.168-3.586-.423-7.583-1.304-11.945-.142-.702-.287-1.743-.451-2.924l-.149-1.066c-.232-1.631-.51-3.438-.876-5.078-.37-1.656-.816-3.074-1.359-3.968-.27-.443-.538-.715-.796-.846-.242-.121-.516-.141-.86.015-8.318 3.77-16.874 6.408-25.455 9.055l-.551.17c-6.78 2.091-11.434 3.223-14.719 3.391-3.303.168-5.329-.633-6.723-2.535-.679-.927-1.183-2.082-1.624-3.425-.441-1.342-.829-2.909-1.262-4.67l-.054-.22c-.858-3.494-1.919-7.814-3.928-12.964-1.738-4.454-4.147-7.507-6.897-10.241-1.231-1.225-2.525-2.38-3.862-3.574l-.485-.433c-1.504-1.345-3.054-2.75-4.592-4.343-1.118-1.158-2.879-2.37-4.951-3.658-.91-.565-1.894-1.153-2.9-1.755a178.84 178.84 0 01-3.707-2.255c-2.211-1.394-4.327-2.866-5.938-4.427-1.596-1.547-2.787-3.267-2.98-5.18-.388-3.845-1.694-5.617-3.367-6.257-1.745-.668-4.059-.179-6.578.992-5.012 2.331-10.402 7.153-12.621 9.221-2.705 2.522-5.382 4.982-8.023 7.409-19.344 17.773-36.781 33.794-49.565 59.866l-.096.195c-1.172 2.393-5.242 10.703-9.185 16.054-1.017 1.38-2.04 2.584-3.016 3.442-.962.846-1.951 1.422-2.888 1.398-1.002-.025-1.797-.725-2.342-2.022-.534-1.268-.865-3.17-.978-5.801-.339-7.9-2.832-16.344-6.054-24.545-2.517-6.406-5.463-12.625-8.148-18.295-.752-1.588-1.484-3.133-2.18-4.627-13.116-28.142-27.656-57.138-50.465-75.694-1.654-1.347-3.134-2.52-4.476-3.584-3.574-2.834-6.172-4.894-8.509-7.391-3.238-3.458-5.981-7.752-10.21-16.07l-.942-1.854c-4.315-8.514-8.927-17.61-14.613-23.885-3.042-3.356-6.37-5.878-10.097-7.07-3.721-1.188-7.876-1.064-12.597.936-1.645.697-3.404 2.111-5.195 3.984-1.785 1.868-3.575 4.163-5.281 6.584-2.785 3.95-5.325 8.202-7.256 11.431a400.72 400.72 0 01-1.214 2.023C63.496 88.254 45.833 106 27.963 123.954c-2.878 2.891-5.76 5.787-8.634 8.711-.208.212-.524.187-.705-.056a.652.652 0 01.047-.822c2.882-2.932 5.77-5.834 8.65-8.728 17.876-17.961 35.434-35.603 49.142-58.234.366-.603.768-1.275 1.202-2.003 1.93-3.229 4.5-7.528 7.312-11.518 1.724-2.447 3.55-4.79 5.386-6.712 1.832-1.916 3.703-3.441 5.521-4.212 4.898-2.075 9.265-2.223 13.203-.964 3.932 1.257 7.399 3.903 10.521 7.347 5.793 6.392 10.474 15.628 14.769 24.103.321.634.64 1.264.958 1.888 4.214 8.288 6.897 12.464 10.025 15.805 2.281 2.436 4.796 4.43 8.338 7.24a449.143 449.143 0 014.545 3.638c23.026 18.733 37.663 47.968 50.77 76.094a834.14 834.14 0 002.166 4.596c2.688 5.675 5.659 11.946 8.193 18.396 3.241 8.248 5.796 16.852 6.144 24.972.111 2.578.432 4.292.876 5.347.433 1.027.942 1.357 1.467 1.37.591.015 1.353-.363 2.263-1.163.896-.787 1.866-1.922 2.86-3.271 3.878-5.263 7.908-13.489 9.081-15.883l.091-.185c12.887-26.282 30.483-42.447 49.819-60.209 2.641-2.426 5.314-4.882 8.013-7.398 2.216-2.066 7.709-6.991 12.874-9.393 2.569-1.195 5.167-1.819 7.261-1.017 2.169.83 3.632 3.11 4.048 7.228.146 1.451 1.08 2.921 2.627 4.42 1.531 1.484 3.575 2.911 5.774 4.298 1.219.769 2.448 1.503 3.658 2.226 1 .597 1.987 1.187 2.943 1.781 2.068 1.285 3.928 2.554 5.145 3.815 1.509 1.563 3.034 2.946 4.537 4.29l.485.433c1.334 1.191 2.65 2.366 3.902 3.611 2.817 2.801 5.34 5.985 7.158 10.646 2.04 5.229 3.118 9.619 3.977 13.115l.056.23c.436 1.772.813 3.288 1.235 4.574.421 1.285.876 2.302 1.45 3.085 1.113 1.518 2.772 2.288 5.919 2.127 3.164-.161 7.723-1.26 14.507-3.353l.529-.163c8.597-2.651 17.105-5.276 25.371-9.022.568-.257 1.117-.251 1.619.003.487.245.885.699 1.215 1.241.654 1.076 1.136 2.669 1.511 4.348.378 1.695.662 3.546.894 5.182.055.382.106.752.155 1.104.163 1.17.299 2.151.432 2.809.902 4.466 1.161 8.547 1.329 12.149.022.455.042.901.061 1.339.136 3.051.253 5.686.71 7.93.515 2.531 1.451 4.496 3.31 5.919 1.884 1.442 4.775 2.371 9.283 2.648 3.302.202 5.552.883 7.103 1.998 1.575 1.133 2.382 2.677 2.857 4.46.363 1.36.541 2.898.726 4.495.052.448.104.901.161 1.355.265 2.107.638 4.341 1.513 6.635 1.281 3.359 4.629 5.287 9.372 6.369 4.714 1.074 10.621 1.273 16.761 1.361.863.012 1.731.023 2.6.033 5.294.062 10.646.126 15.39.685 5.503.65 10.314 1.977 13.289 4.866.093.091.123.069.123.069.035-.011.136-.066.291-.288.309-.444.648-1.281.996-2.482.688-2.372 1.334-5.893 1.89-9.721 1.112-7.654 1.844-16.38 1.844-19.254 0-12.008 4.334-23.358 10.423-32.481 4.059-6.082 4.164-13.094 3.968-20.424-.014-.548-.031-1.097-.047-1.649-.201-6.763-.409-13.752 2.479-20.109 1.05-2.311 2.644-3.694 4.624-4.31 1.96-.611 4.272-.464 6.783.204 5.019 1.335 11.003 4.804 16.935 8.944 5.941 4.147 11.87 8.997 16.786 13.134 1.292 1.086 2.51 2.121 3.639 3.08 3.19 2.708 5.667 4.811 7.061 5.77 4.472 3.075 8.558 7.063 12.568 10.975.529.517 1.057 1.032 1.585 1.544 4.539 4.403 9.034 8.545 14.006 11.12 3.403 1.763 5.464 2.391 6.81 2.405.66.006 1.135-.136 1.512-.356.381-.222.692-.541 1.004-.945.157-.204.311-.422.474-.659.162-.234.334-.486.519-.738.373-.508.809-1.036 1.384-1.509 1.161-.956 2.812-1.63 5.504-1.63 5.682 0 9.832 1.338 13.763 3.192 1.616.762 3.199 1.613 4.827 2.489l1.038.557c2.005 1.072 4.114 2.167 6.498 3.191 2.813 1.208 6.485.546 10.699-1.313 4.197-1.851 8.828-4.841 13.503-8.126 2.123-1.491 4.268-3.053 6.382-4.592 2.509-1.827 4.973-3.621 7.302-5.225 4.303-2.966 8.274-5.38 11.47-6.311 1.96-.571 4.561-1.042 7.167-1.207 2.598-.165 5.245-.028 7.278.649.312.104.604.314.868.554.268.244.533.544.791.861.256.314.516.657.77.995l.009.012c.26.344.517.683.773.998.526.646.996 1.118 1.414 1.315.198.094.362.114.505.083.142-.031.311-.124.504-.349 2.401-2.798 4.366-6.16 6.229-9.709a274.53 274.53 0 001.985-3.88c1.17-2.315 2.347-4.646 3.603-6.854 3.955-6.952 8.831-12.954 17.316-14.475 5.419-.971 10.693 2.066 14.739 6.767 3.782 4.395 6.559 10.315 7.438 16.018.335-.457.777-1.072 1.307-1.808l.006-.009c1.239-1.723 2.941-4.09 4.8-6.562 1.862-2.476 3.885-5.063 5.763-7.219 1.864-2.139 3.631-3.909 4.972-4.69 4.17-2.43 7.931-2.072 11.284-.701 2.378.971 4.592 2.477 6.584 3.831a73.046 73.046 0 002.223 1.474c2.6 1.627 4.618 2.354 6.355 1.067.892-.661 1.777-1.894 2.631-3.996.853-2.098 1.659-5.016 2.415-8.982 3.252-17.052 22.189-26.907 35.773-14.802.586.523 1.338 1.477 2.198 2.691.869 1.226 1.876 2.759 2.977 4.473.729 1.136 1.499 2.352 2.299 3.613 1.619 2.555 3.358 5.299 5.12 7.956 2.634 3.97 5.296 7.705 7.648 10.272 1.178 1.285 2.256 2.252 3.195 2.814.95.568 1.664.666 2.183.417.554-.266 1.091-.525 1.613-.778 6.618-3.198 10.921-5.278 18.889-5.278.276 0 .5.261.5.583z" fill="#fff"/>

<path d="M74.087 10.835h2.788c1.69 0 2.454-.98 2.454-2.28 0-1.312-.789-2.053-1.51-2.098v-.083c.668-.199 1.226-.728 1.226-1.788 0-1.254-.746-2.226-2.294-2.226h-2.664v8.475zm1.098-1.096V7.024h1.623c.88 0 1.43.662 1.43 1.469 0 .712-.415 1.246-1.47 1.246h-1.583zm0-3.713V3.448h1.498c.87 0 1.286.534 1.286 1.238 0 .819-.576 1.34-1.314 1.34h-1.47zM82.13 10.835h4.603v-1.1h-3.505V7.14h3.224V6.043h-3.224V3.461h3.462V2.36h-4.56v8.475zM89.105 10.835h.313c1.654 0 2.052-1.432 2.148-4.155l.114-3.236h2.482v7.391h1.083V2.36h-4.599l-.124 3.981c-.078 2.454-.334 3.352-1.204 3.377l-.213.008v1.11zM98.343 2.36v8.475h1.009l3.696-6.216h.068v6.216h1.097V2.36h-1.015l-3.7 6.224h-.068V2.36h-1.087zM111.621 10.835h1.339l-3.001-4.643 3.019-3.832h-1.36l-2.83 3.58h-.377V2.36h-1.097v8.475h1.097V7.036h.753l2.457 3.8zM115.572 2.36v8.475h1.008l3.697-6.216h.067v6.216h1.098V2.36h-1.016l-3.7 6.224h-.068V2.36h-1.086zM124.542 2.36v8.475h1.009l3.697-6.216h.067v6.216h1.097V2.36h-1.015l-3.701 6.224h-.067V2.36h-1.087zm3.633-2.152c0 .418-.199.786-.696.786-.504 0-.692-.372-.692-.786h-.87c0 .931.607 1.573 1.562 1.573.963 0 1.57-.642 1.57-1.573h-.874zM69.538 24.82h1.098v-3.696h3.626v3.695h1.1v-8.475h-1.1v3.683h-3.626v-3.683h-1.097v8.475zM84.778 20.582c0-2.71-1.392-4.354-3.274-4.354-1.89 0-3.278 1.643-3.278 4.354 0 2.706 1.388 4.353 3.278 4.353 1.882 0 3.274-1.643 3.274-4.353zm-1.087 0c0 2.065-.937 3.186-2.187 3.186-1.254 0-2.188-1.121-2.188-3.186s.934-3.187 2.188-3.187c1.25 0 2.187 1.122 2.187 3.187zM87.646 24.82h2.787c1.69 0 2.454-.981 2.454-2.28 0-1.313-.788-2.053-1.509-2.099v-.083c.668-.198 1.225-.728 1.225-1.788 0-1.253-.745-2.226-2.294-2.226h-2.663v8.475zm1.097-1.097v-2.715h1.623c.88 0 1.431.662 1.431 1.47 0 .71-.415 1.245-1.47 1.245h-1.584zm0-3.712v-2.578h1.499c.87 0 1.285.533 1.285 1.237 0 .82-.575 1.34-1.314 1.34h-1.47zM100.224 16.344h-4.535v8.475h1.097v-7.374h3.438v-1.1zM108.975 20.582c0-2.71-1.392-4.354-3.274-4.354-1.889 0-3.278 1.643-3.278 4.354 0 2.706 1.389 4.353 3.278 4.353 1.882 0 3.274-1.643 3.274-4.353zm-1.087 0c0 2.065-.937 3.186-2.187 3.186-1.254 0-2.188-1.121-2.188-3.186s.934-3.187 2.188-3.187c1.25 0 2.187 1.122 2.187 3.187zM111.843 24.82h1.097v-2.98h1.492c1.687 0 2.521-1.188 2.521-2.752 0-1.56-.827-2.744-2.518-2.744h-2.592v8.475zm1.097-4.064V17.44h1.378c1.087 0 1.531.687 1.531 1.647s-.444 1.668-1.517 1.668h-1.392zM126.057 20.582c0-2.71-1.392-4.354-3.274-4.354-1.889 0-3.278 1.643-3.278 4.354 0 2.706 1.389 4.353 3.278 4.353 1.882 0 3.274-1.643 3.274-4.353zm-1.087 0c0 2.065-.937 3.186-2.187 3.186-1.254 0-2.188-1.121-2.188-3.186s.934-3.187 2.188-3.187c1.25 0 2.187 1.122 2.187 3.187zM128.375 26.868h1.051v-2.049h4.883v2.036h1.051v-3.12h-.824v-7.39h-4.485l-.171 3.579c-.11 2.359-.539 3.331-1.026 3.811h-.479v3.133zm1.772-3.133c.415-.774.696-2.02.785-3.811l.113-2.48h2.44v6.291h-3.338zM5.881 145.696H.271v8.475h1.093v-7.383h3.423v7.383h1.094v-8.475zM15.1 148.452c-.25-1.813-1.467-2.872-3.005-2.872-1.882 0-3.27 1.643-3.27 4.354 0 2.71 1.381 4.353 3.27 4.353 1.598 0 2.766-1.167 3.005-2.843l-1.108-.004c-.189 1.084-.97 1.68-1.89 1.68-1.246 0-2.187-1.113-2.187-3.186 0-2.057.937-3.187 2.19-3.187.928 0 1.705.608 1.886 1.705H15.1zM22.22 154.171h1.339l-3-4.643 3.017-3.832h-1.36l-2.83 3.58h-.376v-3.58h-1.098v8.475h1.098v-3.799h.753l2.457 3.799zM32.126 149.934c0-2.711-1.392-4.354-3.274-4.354-1.889 0-3.277 1.643-3.277 4.354 0 2.706 1.388 4.353 3.277 4.353 1.882 0 3.274-1.643 3.274-4.353zm-1.086 0c0 2.065-.938 3.186-2.188 3.186-1.253 0-2.187-1.121-2.187-3.186s.934-3.187 2.187-3.187c1.25 0 2.188 1.122 2.188 3.187zM34.995 154.171h2.787c1.69 0 2.454-.981 2.454-2.28 0-1.312-.788-2.053-1.51-2.098v-.083c.668-.199 1.226-.728 1.226-1.788 0-1.254-.746-2.226-2.294-2.226h-2.663v8.475zm1.097-1.096v-2.715h1.623c.88 0 1.43.662 1.43 1.469 0 .712-.415 1.246-1.47 1.246h-1.583zm0-3.713v-2.578h1.498c.87 0 1.286.534 1.286 1.238 0 .819-.575 1.34-1.314 1.34h-1.47zM163.482 178.259h2.266v7.375h1.094v-7.375h2.269v-1.1h-5.629v1.1zM171.855 185.634h2.787c1.691 0 2.454-.981 2.454-2.28 0-1.312-.788-2.053-1.509-2.098v-.083c.667-.199 1.225-.728 1.225-1.788 0-1.254-.746-2.226-2.294-2.226h-2.663v8.475zm1.097-1.097v-2.714h1.623c.88 0 1.431.662 1.431 1.469 0 .711-.416 1.245-1.47 1.245h-1.584zm0-3.712v-2.578h1.499c.87 0 1.285.534 1.285 1.237 0 .82-.575 1.341-1.314 1.341h-1.47zM179.898 185.634h4.602v-1.101h-3.505v-2.595h3.224v-1.096h-3.224v-2.583h3.462v-1.1h-4.559v8.475zM187.423 185.634h1.097v-2.98h1.492c1.687 0 2.521-1.187 2.521-2.752 0-1.56-.827-2.743-2.518-2.743h-2.592v8.475zm1.097-4.064v-3.315h1.378c1.087 0 1.531.687 1.531 1.647s-.444 1.668-1.517 1.668h-1.392zM196.427 180.577v-3.418h-1.1v8.475h2.723c1.62 0 2.546-1.051 2.543-2.57.003-1.515-.923-2.487-2.543-2.487h-1.623zm0 1.076h1.623c.941 0 1.46.629 1.46 1.395 0 .786-.519 1.51-1.46 1.51h-1.623v-2.905zM261.651 211.272v-8.475h-2.592c-1.687 0-2.518 1.096-2.518 2.656 0 1.138.444 2.003 1.336 2.388l-1.613 3.431h1.25l1.478-3.207h1.562v3.207h1.097zm-1.097-4.308h-1.392c-1.069 0-1.516-.555-1.516-1.511 0-.96.447-1.56 1.53-1.56h1.378v3.071zM264.746 211.272h1.097v-2.98h1.492c1.687 0 2.521-1.187 2.521-2.752 0-1.56-.827-2.743-2.518-2.743h-2.592v8.475zm1.097-4.064v-3.315h1.378c1.087 0 1.531.687 1.531 1.647s-.444 1.668-1.517 1.668h-1.392zM278.96 207.034c0-2.71-1.392-4.353-3.274-4.353-1.889 0-3.278 1.643-3.278 4.353 0 2.707 1.389 4.354 3.278 4.354 1.882 0 3.274-1.643 3.274-4.354zm-1.087 0c0 2.065-.937 3.187-2.187 3.187-1.254 0-2.188-1.122-2.188-3.187 0-2.065.934-3.186 2.188-3.186 1.25 0 2.187 1.121 2.187 3.186zM287.868 205.553c-.248-1.813-1.466-2.872-3.004-2.872-1.882 0-3.27 1.643-3.27 4.353 0 2.711 1.381 4.354 3.27 4.354 1.598 0 2.767-1.167 3.004-2.843l-1.108-.004c-.188 1.084-.969 1.68-1.889 1.68-1.246 0-2.187-1.114-2.187-3.187 0-2.057.937-3.186 2.191-3.186.927 0 1.704.608 1.885 1.705h1.108zM290.131 211.272h.313c1.654 0 2.052-1.432 2.148-4.155l.114-3.236h2.482v7.391h1.083v-8.475h-4.599l-.124 3.981c-.078 2.454-.334 3.352-1.204 3.376l-.213.009v1.109zM299.983 211.272l.668-2.243h2.841l.664 2.243h1.165l-2.617-8.475h-1.268l-2.617 8.475h1.164zm.988-3.319l1.072-3.617h.057l1.072 3.617h-2.201zM307.871 211.272h2.788c1.69 0 2.453-.981 2.453-2.28 0-1.312-.788-2.053-1.509-2.099v-.082c.668-.199 1.225-.729 1.225-1.788 0-1.254-.745-2.226-2.294-2.226h-2.663v8.475zm1.097-1.097v-2.715h1.623c.881 0 1.431.663 1.431 1.47 0 .711-.415 1.245-1.47 1.245h-1.584zm0-3.712v-2.578h1.499c.87 0 1.285.534 1.285 1.237 0 .82-.575 1.341-1.314 1.341h-1.47zM315.363 211.272h.313c1.655 0 2.053-1.432 2.148-4.155l.114-3.236h2.482v7.391h1.083v-8.475h-4.598l-.125 3.981c-.078 2.454-.333 3.352-1.203 3.376l-.214.009v1.109zM325.709 206.215v-3.418h-1.1v8.475h2.723c1.62 0 2.546-1.051 2.543-2.57.003-1.515-.923-2.487-2.543-2.487h-1.623zm0 1.076h1.623c.941 0 1.46.629 1.46 1.394 0 .787-.519 1.511-1.46 1.511h-1.623v-2.905zM339.802 132.876v8.475h1.044v-6.137h.068l2.145 6.125h.866l2.145-6.121h.067v6.133h1.044v-8.475h-1.331l-2.316 6.588h-.085l-2.315-6.588h-1.332zM351.077 141.351l.667-2.243h2.841l.664 2.243h1.165l-2.617-8.475h-1.268l-2.617 8.475h1.165zm.987-3.319l1.072-3.616h.057l1.073 3.616h-2.202zM358.964 141.351h1.098v-3.695h3.625v3.695h1.101v-8.475h-1.101v3.683h-3.625v-3.683h-1.098v8.475zM367.527 133.977h2.266v7.374h1.094v-7.374h2.269v-1.101h-5.629v1.101zM376.415 141.467h.497c1.136 0 1.513-.74 1.832-1.585l2.514-7.006h-1.15l-1.698 4.9-1.907-4.9h-1.164l2.557 6.361-.103.302c-.157.443-.398.803-.942.803h-.436v1.125zM383.796 141.351h1.098v-2.979h1.491c1.687 0 2.521-1.188 2.521-2.752 0-1.56-.827-2.744-2.517-2.744h-2.593v8.475zm1.098-4.063v-3.315h1.377c1.087 0 1.531.687 1.531 1.647s-.444 1.668-1.516 1.668h-1.392zM398.01 137.114c0-2.711-1.392-4.354-3.274-4.354-1.889 0-3.278 1.643-3.278 4.354 0 2.706 1.389 4.353 3.278 4.353 1.882 0 3.274-1.643 3.274-4.353zm-1.086 0c0 2.065-.938 3.186-2.188 3.186-1.253 0-2.187-1.121-2.187-3.186s.934-3.187 2.187-3.187c1.25 0 2.188 1.122 2.188 3.187zM400.878 141.351h2.788c1.69 0 2.454-.98 2.454-2.28 0-1.312-.789-2.052-1.509-2.098v-.083c.667-.198 1.225-.728 1.225-1.787 0-1.254-.746-2.227-2.294-2.227h-2.664v8.475zm1.098-1.096v-2.715h1.622c.881 0 1.432.662 1.432 1.469 0 .712-.416 1.246-1.471 1.246h-1.583zm0-3.712v-2.578h1.498c.87 0 1.286.533 1.286 1.237 0 .819-.576 1.341-1.314 1.341h-1.47zM415.239 137.114c0-2.711-1.392-4.354-3.274-4.354-1.89 0-3.278 1.643-3.278 4.354 0 2.706 1.388 4.353 3.278 4.353 1.882 0 3.274-1.643 3.274-4.353zm-1.087 0c0 2.065-.937 3.186-2.187 3.186-1.254 0-2.188-1.121-2.188-3.186s.934-3.187 2.188-3.187c1.25 0 2.187 1.122 2.187 3.187zM396.62 173.985h1.338l-3-4.643 3.018-3.833h-1.36l-2.83 3.58h-.377v-3.58h-1.097v8.476h1.097v-3.799h.753l2.458 3.799zM406.526 169.747c0-2.711-1.392-4.353-3.274-4.353-1.889 0-3.278 1.642-3.278 4.353 0 2.707 1.389 4.354 3.278 4.354 1.882 0 3.274-1.643 3.274-4.354zm-1.087 0c0 2.065-.937 3.187-2.187 3.187-1.254 0-2.188-1.122-2.188-3.187 0-2.065.934-3.186 2.188-3.186 1.25 0 2.187 1.121 2.187 3.186zM408.733 166.61h2.265v7.375h1.094v-7.375h2.269v-1.101h-5.628v1.101zM417.105 173.985h4.602v-1.101h-3.505v-2.595h3.225v-1.096h-3.225v-2.583h3.463v-1.101h-4.56v8.476zM424.08 173.985h.313c1.654 0 2.052-1.432 2.148-4.155l.114-3.236h2.482v7.391h1.083v-8.476h-4.599l-.124 3.981c-.078 2.454-.334 3.353-1.204 3.377l-.213.009v1.109zM434.426 168.928v-3.419h-1.101v8.476h2.724c1.619 0 2.546-1.051 2.542-2.57.004-1.515-.923-2.487-2.542-2.487h-1.623zm0 1.076h1.623c.941 0 1.459.629 1.459 1.394 0 .787-.518 1.511-1.459 1.511h-1.623v-2.905zM441.429 173.985h1.098v-3.696h3.625v3.696h1.101v-8.476h-1.101v3.684h-3.625v-3.684h-1.098v8.476zM450.351 165.509v8.476h1.009l3.696-6.216h.068v6.216h1.097v-8.476h-1.015l-3.701 6.224h-.067v-6.224h-1.087zM459.467 165.509v2.798c-.003 1.891.981 2.636 2.572 2.636.699 0 1.303-.103 1.825-.277v3.319h1.086v-8.476h-1.086v4.064a6.428 6.428 0 01-1.825.273c-.949 0-1.488-.372-1.488-1.539v-2.798h-1.084zM471.265 169.213h-3.225v1.072h3.225v-1.072zM476.723 165.509H475.7c-.039.232-.593 1.304-1.655 1.304v1.051c.824 0 1.396-.381 1.516-.629h.061v6.75h1.101v-8.476zM528.336 210.955h-4.535v8.475h1.097v-7.374h3.438v-1.101zM530.522 219.43h.313c1.654 0 2.052-1.431 2.148-4.154l.114-3.237h2.482v7.391h1.083v-8.475h-4.599l-.124 3.981c-.078 2.454-.334 3.352-1.204 3.377l-.213.008v1.109zM540.374 219.43l.668-2.242h2.841l.664 2.242h1.165l-2.617-8.475h-1.268l-2.617 8.475h1.164zm.988-3.318l1.072-3.617h.057l1.072 3.617h-2.201zM550.694 219.546c1.485 0 2.575-1.034 2.572-2.441.003-1.072-.554-1.842-1.52-2.016v-.066c.76-.227 1.253-.923 1.25-1.874.003-1.246-.874-2.31-2.273-2.31-1.335 0-2.408.94-2.443 2.318h1.062c.024-.778.653-1.25 1.367-1.25.742 0 1.228.526 1.225 1.308.003.819-.561 1.357-1.367 1.357h-.615v1.043h.615c1.008 0 1.591.596 1.591 1.448 0 .824-.615 1.383-1.471 1.383-.788 0-1.402-.472-1.445-1.225h-1.115c.046 1.382 1.097 2.325 2.567 2.325zM562.525 215.193c0-2.711-1.392-4.354-3.274-4.354-1.89 0-3.278 1.643-3.278 4.354 0 2.706 1.388 4.353 3.278 4.353 1.882 0 3.274-1.643 3.274-4.353zm-1.087 0c0 2.065-.937 3.186-2.187 3.186-1.254 0-2.188-1.121-2.188-3.186s.934-3.187 2.188-3.187c1.25 0 2.187 1.122 2.187 3.187zM565.393 219.43h2.787c1.691 0 2.454-.98 2.454-2.28 0-1.312-.788-2.052-1.509-2.098v-.083c.668-.198 1.225-.728 1.225-1.787 0-1.254-.746-2.227-2.294-2.227h-2.663v8.475zm1.097-1.096v-2.715h1.623c.881 0 1.431.662 1.431 1.469 0 .712-.415 1.246-1.47 1.246h-1.584zm0-3.712v-2.578h1.499c.87 0 1.285.533 1.285 1.237 0 .819-.575 1.341-1.314 1.341h-1.47zM531.567 135.817h-5.61v8.476h1.093v-7.383h3.424v7.383h1.093v-8.476zM534.745 144.293h4.603v-1.101h-3.505v-2.595h3.224V139.5h-3.224v-2.582h3.462v-1.101h-4.56v8.476zM542.271 144.293h1.097v-2.98h1.491c1.687 0 2.522-1.188 2.522-2.752 0-1.56-.828-2.744-2.518-2.744h-2.592v8.476zm1.097-4.064v-3.315h1.378c1.086 0 1.53.687 1.53 1.647s-.444 1.668-1.516 1.668h-1.392zM550.167 135.817v8.476h1.044v-6.137h.068l2.145 6.124h.866l2.145-6.12h.067v6.133h1.044v-8.476h-1.331l-2.316 6.589h-.085l-2.315-6.589h-1.332zM561.935 139.236v-3.419h-1.101v8.476h2.724c1.619 0 2.546-1.051 2.543-2.57.003-1.515-.924-2.487-2.543-2.487h-1.623zm0 1.076h1.623c.941 0 1.46.629 1.46 1.394 0 .786-.519 1.511-1.46 1.511h-1.623v-2.905zM598.442 180.592h2.265v7.374h1.094v-7.374h2.269v-1.101h-5.628v1.101zM607.911 179.491h-1.097v8.475h1.097v-3.6h1.275c.199 2.326 1.513 3.716 3.249 3.716 1.883 0 3.275-1.643 3.275-4.353 0-2.711-1.392-4.354-3.275-4.354-1.786 0-3.125 1.469-3.267 3.919h-1.257v-3.803zm6.712 4.238c0 2.065-.938 3.186-2.188 3.186-1.253 0-2.187-1.121-2.187-3.186 0-2.066.934-3.187 2.187-3.187 1.25 0 2.188 1.121 2.188 3.187zM618.392 179.491v8.475h1.044v-6.137h.068l2.145 6.125h.866l2.145-6.121h.067v6.133h1.044v-8.475h-1.331l-2.316 6.588h-.085l-2.315-6.588h-1.332zM629.052 187.966h4.603v-1.101h-3.505v-2.594h3.224v-1.097h-3.224v-2.582h3.462v-1.101h-4.56v8.475zM636.578 187.966h1.097v-3.695h3.626v3.695h1.101v-8.475h-1.101v3.683h-3.626v-3.683h-1.097v8.475zM646.607 182.909v-3.418h-1.1v8.475h2.723c1.62 0 2.547-1.051 2.543-2.57.004-1.514-.923-2.487-2.543-2.487h-1.623zm0 1.076h1.623c.941 0 1.46.629 1.46 1.395 0 .786-.519 1.51-1.46 1.51h-1.623v-2.905zM697.457 209.364c0-2.71-1.393-4.353-3.275-4.353-1.889 0-3.277 1.643-3.277 4.353 0 2.707 1.388 4.354 3.277 4.354 1.882 0 3.275-1.643 3.275-4.354zm-1.087 0c0 2.065-.938 3.187-2.188 3.187-1.253 0-2.187-1.122-2.187-3.187 0-2.065.934-3.186 2.187-3.186 1.25 0 2.188 1.121 2.188 3.186zM700.325 205.127v8.475h1.044v-6.137h.067l2.145 6.124h.866l2.145-6.12h.068v6.133h1.044v-8.475h-1.332l-2.315 6.588h-.085l-2.316-6.588h-1.331zM717.025 207.883c-.248-1.813-1.466-2.872-3.004-2.872-1.882 0-3.271 1.643-3.271 4.353 0 2.711 1.382 4.354 3.271 4.354 1.598 0 2.766-1.167 3.004-2.843l-1.108-.004c-.188 1.084-.969 1.68-1.889 1.68-1.246 0-2.187-1.113-2.187-3.187 0-2.056.937-3.186 2.191-3.186.926 0 1.704.608 1.885 1.705h1.108zM724.146 213.602h1.339l-3.001-4.643 3.018-3.832h-1.36l-2.83 3.579h-.376v-3.579h-1.098v8.475h1.098v-3.799h.752l2.458 3.799zM805.381 121.541h1.339l-3.001-4.643 3.019-3.832h-1.36l-2.831 3.58h-.376v-3.58h-1.097v8.475h1.097v-3.799h.753l2.457 3.799zM809.332 121.541h1.097v-2.979h1.491c1.687 0 2.522-1.188 2.522-2.752 0-1.56-.828-2.744-2.518-2.744h-2.592v8.475zm1.097-4.063v-3.315h1.378c1.086 0 1.53.687 1.53 1.647s-.444 1.668-1.516 1.668h-1.392zM817.071 121.541l.668-2.243h2.84l.664 2.243h1.165l-2.617-8.475h-1.268l-2.617 8.475h1.165zm.987-3.319l1.073-3.616h.056l1.073 3.616h-2.202zM830.657 115.822c-.248-1.812-1.466-2.872-3.004-2.872-1.882 0-3.271 1.643-3.271 4.354 0 2.71 1.382 4.353 3.271 4.353 1.598 0 2.766-1.167 3.004-2.843l-1.108-.004c-.188 1.084-.969 1.68-1.889 1.68-1.246 0-2.187-1.113-2.187-3.186 0-2.057.937-3.187 2.191-3.187.926 0 1.704.609 1.885 1.705h1.108zM833.47 121.541h1.098v-3.695h3.625v3.695h1.101v-8.475h-1.101v3.683h-3.625v-3.683h-1.098v8.475zM848.71 117.304c0-2.711-1.392-4.354-3.275-4.354-1.889 0-3.277 1.643-3.277 4.354 0 2.706 1.388 4.353 3.277 4.353 1.883 0 3.275-1.643 3.275-4.353zm-1.087 0c0 2.065-.938 3.186-2.188 3.186-1.253 0-2.187-1.121-2.187-3.186s.934-3.187 2.187-3.187c1.25 0 2.188 1.122 2.188 3.187zM856.428 121.541v-8.475h-2.592c-1.687 0-2.518 1.097-2.518 2.657 0 1.138.444 2.003 1.336 2.388l-1.613 3.43h1.25l1.478-3.207h1.562v3.207h1.097zm-1.097-4.308h-1.392c-1.069 0-1.516-.554-1.516-1.51 0-.96.447-1.56 1.53-1.56h1.378v3.07zM859.523 121.541h1.097v-2.979h1.492c1.687 0 2.521-1.188 2.521-2.752 0-1.56-.827-2.744-2.518-2.744h-2.592v8.475zm1.097-4.063v-3.315h1.378c1.087 0 1.531.687 1.531 1.647s-.444 1.668-1.517 1.668h-1.392zM873.46 115.822c-.249-1.812-1.467-2.872-3.004-2.872-1.882 0-3.271 1.643-3.271 4.354 0 2.71 1.381 4.353 3.271 4.353 1.598 0 2.766-1.167 3.004-2.843l-1.108-.004c-.188 1.084-.969 1.68-1.889 1.68-1.247 0-2.188-1.113-2.188-3.186 0-2.057.938-3.187 2.191-3.187.927 0 1.705.609 1.886 1.705h1.108zM880.58 121.541h1.339l-3-4.643 3.018-3.832h-1.36l-2.83 3.58h-.377v-3.58h-1.097v8.475h1.097v-3.799h.753l2.457 3.799zM875.895 188.082h.497c1.137 0 1.513-.741 1.833-1.585l2.514-7.006h-1.151l-1.697 4.9-1.907-4.9h-1.165l2.557 6.36-.103.303c-.156.442-.398.802-.941.802h-.437v1.126zM882.726 187.966h.313c1.655 0 2.052-1.432 2.148-4.155l.114-3.236h2.482v7.391h1.083v-8.475h-4.599l-.124 3.981c-.078 2.454-.334 3.352-1.204 3.377l-.213.008v1.109zM892.579 187.966l.667-2.243h2.841l.664 2.243h1.165l-2.617-8.475h-1.268l-2.617 8.475h1.165zm.987-3.319l1.072-3.617h.057l1.072 3.617h-2.201zM900.466 187.966h1.097v-3.695h3.626v3.695h1.101v-8.475h-1.101v3.683h-3.626v-3.683h-1.097v8.475zM912.517 183.195h-3.225v1.071h3.225v-1.071zM915.397 188.082h.497c1.137 0 1.513-.741 1.833-1.585l2.514-7.006h-1.151l-1.697 4.9-1.907-4.9h-1.165l2.557 6.36-.103.303c-.156.442-.398.802-.941.802h-.437v1.126zM922.228 190.015h1.051v-2.049h4.883v2.036h1.051v-3.12h-.824v-7.391h-4.485l-.17 3.58c-.11 2.358-.54 3.331-1.026 3.811h-.48v3.133zm1.772-3.133c.416-.774.696-2.02.785-3.811l.114-2.479h2.439v6.29H924zM931.685 185.276c.138 1.606 1.04 2.806 2.794 2.806 1.755 0 2.877-1.527 2.877-3.902v-.882c0-2.375-1.137-3.923-2.937-3.923-1.712 0-2.596 1.217-2.738 2.855h1.119c.113-1.1.557-1.754 1.619-1.754 1.168 0 1.822 1.101 1.825 2.814h-2.681v1.084h2.678c-.047 1.494-.608 2.624-1.762 2.624-1.09 0-1.555-.604-1.679-1.722h-1.115z" fill="#fff"/>
<path d="M106.746 39.193c0 2.248-1.564 4.07-3.493 4.07-1.929 0-3.493-1.822-3.493-4.07s1.564-4.07 3.493-4.07c1.929 0 3.493 1.822 3.493 4.07z" fill="#272722"/>
<path fill-rule="evenodd" clip-rule="evenodd" d="M103.253 42.098c1.377 0 2.493-1.3 2.493-2.905 0-1.604-1.116-2.905-2.493-2.905-1.377 0-2.493 1.3-2.493 2.905 0 1.605 1.116 2.905 2.493 2.905zm0 1.166c1.929 0 3.493-1.823 3.493-4.071 0-2.248-1.564-4.07-3.493-4.07-1.929 0-3.493 1.822-3.493 4.07s1.564 4.07 3.493 4.07z" fill="#fff"/>
<path d="M20.985 133.771c0 2.248-1.564 4.07-3.493 4.07-1.929 0-3.493-1.822-3.493-4.07s1.564-4.071 3.493-4.071c1.93 0 3.493 1.823 3.493 4.071z" fill="#131313"/>
<path fill-rule="evenodd" clip-rule="evenodd" d="M17.492 140.676c1.377 0 2.493-1.301 2.493-2.905 0-1.605-1.116-2.905-2.493-2.905-1.377 0-2.493 1.3-2.493 2.905 0 1.604 1.116 2.905 2.493 2.905zm0 1.165c1.93 0 3.493-1.822 3.493-4.07s-1.564-4.071-3.493-4.071c-1.929 0-3.493 1.823-3.493 4.071 0 2.248 1.564 4.07 3.493 4.07z" fill="#fff"/>
<path d="M215.023 181.659c0 2.248-1.564 4.07-3.493 4.07-1.929 0-3.493-1.822-3.493-4.07s1.564-4.071 3.493-4.071c1.929 0 3.493 1.823 3.493 4.071z" fill="#4D5648"/>
<path fill-rule="evenodd" clip-rule="evenodd" d="M211.53 184.564c1.377 0 2.493-1.301 2.493-2.905 0-1.605-1.116-2.905-2.493-2.905-1.377 0-2.493 1.3-2.493 2.905 0 1.604 1.116 2.905 2.493 2.905zm0 1.165c1.929 0 3.493-1.822 3.493-4.07s-1.564-4.071-3.493-4.071c-1.929 0-3.493 1.823-3.493 4.071 0 2.248 1.564 4.07 3.493 4.07z" fill="#fff"/>
<path d="M247.335 207.102c0 2.248-1.564 4.071-3.493 4.071-1.929 0-3.493-1.823-3.493-4.071 0-2.248 1.564-4.07 3.493-4.07 1.929 0 3.493 1.822 3.493 4.07z" fill="#47443E"/>
<path fill-rule="evenodd" clip-rule="evenodd" d="M243.842 210.007c1.377 0 2.493-1.3 2.493-2.905 0-1.604-1.116-2.905-2.493-2.905-1.377 0-2.493 1.301-2.493 2.905 0 1.605 1.116 2.905 2.493 2.905zm0 1.166c1.929 0 3.493-1.823 3.493-4.071 0-2.248-1.564-4.07-3.493-4.07-1.929 0-3.493 1.822-3.493 4.07s1.564 4.071 3.493 4.071z" fill="#fff"/>
<path d="M335.531 148.079c0 2.248-1.564 4.071-3.493 4.071-1.929 0-3.493-1.823-3.493-4.071 0-2.248 1.564-4.07 3.493-4.07 1.929 0 3.493 1.822 3.493 4.07z" fill="#93A47C"/>
<path fill-rule="evenodd" clip-rule="evenodd" d="M332.038 150.984c1.377 0 2.493-1.3 2.493-2.905 0-1.604-1.116-2.905-2.493-2.905-1.377 0-2.493 1.301-2.493 2.905 0 1.605 1.116 2.905 2.493 2.905zm0 1.166c1.929 0 3.493-1.823 3.493-4.071 0-2.248-1.564-4.07-3.493-4.07-1.929 0-3.493 1.822-3.493 4.07s1.564 4.071 3.493 4.071z" fill="#fff"/>
<path d="M413.249 187.767c0 2.248-1.563 4.07-3.493 4.07-1.929 0-3.492-1.822-3.492-4.07s1.563-4.071 3.492-4.071c1.93 0 3.493 1.823 3.493 4.071z" fill="#738F8C"/>
<path fill-rule="evenodd" clip-rule="evenodd" d="M409.756 190.672c1.377 0 2.493-1.301 2.493-2.905 0-1.605-1.116-2.905-2.493-2.905-1.376 0-2.492 1.3-2.492 2.905 0 1.604 1.116 2.905 2.492 2.905zm0 1.165c1.93 0 3.493-1.822 3.493-4.07s-1.563-4.071-3.493-4.071c-1.929 0-3.492 1.823-3.492 4.071 0 2.248 1.563 4.07 3.492 4.07z" fill="#fff"/>
<path d="M515.415 215.244c0 2.248-1.564 4.07-3.493 4.07-1.929 0-3.493-1.822-3.493-4.07s1.564-4.071 3.493-4.071c1.929 0 3.493 1.823 3.493 4.071z" fill="#789186"/>
<path fill-rule="evenodd" clip-rule="evenodd" d="M511.922 218.149c1.377 0 2.493-1.301 2.493-2.905 0-1.605-1.116-2.905-2.493-2.905-1.377 0-2.493 1.3-2.493 2.905 0 1.604 1.116 2.905 2.493 2.905zm0 1.165c1.929 0 3.493-1.822 3.493-4.07s-1.564-4.071-3.493-4.071c-1.929 0-3.493 1.823-3.493 4.071 0 2.248 1.564 4.07 3.493 4.07z" fill="#fff"/>
<path d="M548.597 155.206c0 2.248-1.564 4.07-3.493 4.07-1.929 0-3.493-1.822-3.493-4.07s1.564-4.071 3.493-4.071c1.929 0 3.493 1.823 3.493 4.071z" fill="#8CBABB"/>
<path fill-rule="evenodd" clip-rule="evenodd" d="M545.104 158.111c1.377 0 2.493-1.301 2.493-2.905 0-1.605-1.116-2.905-2.493-2.905-1.377 0-2.493 1.3-2.493 2.905 0 1.604 1.116 2.905 2.493 2.905zm0 1.165c1.929 0 3.493-1.822 3.493-4.07s-1.564-4.071-3.493-4.071c-1.929 0-3.493 1.823-3.493 4.071 0 2.248 1.564 4.07 3.493 4.07z" fill="#fff"/>
<path d="M605.355 200.998c0 2.248-1.564 4.07-3.493 4.07-1.929 0-3.493-1.822-3.493-4.07s1.564-4.071 3.493-4.071c1.929 0 3.493 1.823 3.493 4.071z" fill="#414847"/>
<path fill-rule="evenodd" clip-rule="evenodd" d="M601.862 203.903c1.377 0 2.493-1.301 2.493-2.905 0-1.605-1.116-2.905-2.493-2.905-1.377 0-2.493 1.3-2.493 2.905 0 1.604 1.116 2.905 2.493 2.905zm0 1.165c1.929 0 3.493-1.822 3.493-4.07s-1.564-4.071-3.493-4.071c-1.929 0-3.493 1.823-3.493 4.071 0 2.248 1.564 4.07 3.493 4.07z" fill="#fff"/>
<path d="M711.02 185.731c0 2.248-1.564 4.07-3.493 4.07-1.929 0-3.493-1.822-3.493-4.07s1.564-4.071 3.493-4.071c1.929 0 3.493 1.823 3.493 4.071z" fill="#577379"/>
<path fill-rule="evenodd" clip-rule="evenodd" d="M707.527 188.636c1.377 0 2.493-1.301 2.493-2.905 0-1.605-1.116-2.905-2.493-2.905-1.377 0-2.493 1.3-2.493 2.905 0 1.604 1.116 2.905 2.493 2.905zm0 1.165c1.929 0 3.493-1.822 3.493-4.07s-1.564-4.071-3.493-4.071c-1.929 0-3.493 1.823-3.493 4.071 0 2.248 1.564 4.07 3.493 4.07z" fill="#fff"/>
<path d="M845.95 130.78c0 2.248-1.564 4.07-3.493 4.07-1.929 0-3.493-1.822-3.493-4.07s1.564-4.071 3.493-4.071c1.929 0 3.493 1.823 3.493 4.071z" fill="#3E403A"/>
<path fill-rule="evenodd" clip-rule="evenodd" d="M842.457 133.685c1.377 0 2.493-1.301 2.493-2.905 0-1.605-1.116-2.905-2.493-2.905-1.377 0-2.493 1.3-2.493 2.905 0 1.604 1.116 2.905 2.493 2.905zm0 1.165c1.929 0 3.493-1.822 3.493-4.07s-1.564-4.071-3.493-4.071c-1.929 0-3.493 1.823-3.493 4.071 0 2.248 1.564 4.07 3.493 4.07z" fill="#fff"/>
<path d="M908.988 162.902c0 2.249-1.564 4.071-3.493 4.071-1.929 0-3.493-1.822-3.493-4.071 0-2.248 1.564-4.07 3.493-4.07 1.929 0 3.493 1.822 3.493 4.07z" fill="#181A19"/>
<path fill-rule="evenodd" clip-rule="evenodd" d="M905.495 165.808c1.377 0 2.493-1.301 2.493-2.906 0-1.604-1.116-2.905-2.493-2.905-1.377 0-2.493 1.301-2.493 2.905 0 1.605 1.116 2.906 2.493 2.906zm0 1.165c1.929 0 3.493-1.822 3.493-4.071 0-2.248-1.564-4.07-3.493-4.07-1.929 0-3.493 1.822-3.493 4.07 0 2.249 1.564 4.071 3.493 4.071z" fill="#fff"/></svg>
